<svg width="70" height="70" viewBox="0 0 70 70" fill="none" xmlns="http://www.w3.org/2000/svg">
<mask id="mask0_2867_8796" style="mask-type:luminance" maskUnits="userSpaceOnUse" x="0" y="0" width="70" height="70">
<path d="M35.0004 68.3334C39.3786 68.3391 43.7148 67.4795 47.7597 65.804C51.8046 64.1284 55.4786 61.6701 58.5704 58.5701C61.6703 55.4783 64.1287 51.8044 65.8042 47.7595C67.4797 43.7145 68.3394 39.3783 68.3337 35.0001C68.3393 30.6219 67.4796 26.2857 65.8041 22.2408C64.1286 18.1959 61.6702 14.522 58.5704 11.4301C55.4786 8.33015 51.8046 5.87177 47.7597 4.19625C43.7148 2.52073 39.3786 1.6611 35.0004 1.66678C30.6221 1.66119 26.286 2.52086 22.2411 4.19638C18.1961 5.8719 14.5222 8.33023 11.4304 11.4301C8.33047 14.522 5.87214 18.1959 4.19662 22.2408C2.52111 26.2857 1.66144 30.6219 1.66702 35.0001C1.66135 39.3783 2.52097 43.7145 4.1965 47.7595C5.87202 51.8044 8.3304 55.4783 11.4304 58.5701C14.5222 61.67 18.1961 64.1283 22.2411 65.8038C26.286 67.4794 30.6221 68.339 35.0004 68.3334Z" fill="white" stroke="white" stroke-width="2" stroke-linejoin="round"/>
<path d="M21.667 35L31.667 45L51.667 25" stroke="black" stroke-width="2" stroke-linecap="round" stroke-linejoin="round"/>
</mask>
<g mask="url(#mask0_2867_8796)">
<path d="M-5 -5H75V75H-5V-5Z" fill="#94BE41"/>
</g>
</svg>
