<svg width="50" height="44" viewBox="0 0 50 44" fill="none" xmlns="http://www.w3.org/2000/svg">
<path d="M26.2714 11.5414L26.1798 11.5145C25.8205 11.4092 25.6118 11.0358 25.7206 10.6772L26.2714 11.5414ZM26.2714 11.5414L26.2766 11.5355M26.2714 11.5414L26.2766 11.5355M26.2766 11.5355C26.6055 11.5828 26.9291 11.3869 27.0271 11.062C27.8729 8.26975 30.5392 6.31629 33.5123 6.31629C33.8863 6.31629 34.1942 6.01756 34.1942 5.64369C34.1942 5.2698 33.8863 4.97109 33.5123 4.97109C29.8214 4.97109 26.7176 7.38557 25.7206 10.6771L26.2766 11.5355Z" fill="#263359" stroke="#F9FFF9" stroke-width="0.3"/>
<path d="M40.9577 31.2503H37.7662C37.4725 31.2503 37.2343 31.0163 37.2343 30.7277C37.2343 30.4392 37.4725 30.2051 37.7662 30.2051H40.9577C45.3569 30.2051 48.9364 26.6884 48.9364 22.3663C48.9364 18.0441 45.3569 14.5274 40.9577 14.5274H40.8809C40.7267 14.5274 40.58 14.4617 40.4789 14.3471C40.3779 14.2325 40.3323 14.0806 40.3543 13.9305C40.4018 13.605 40.4258 13.278 40.4258 12.9596C40.4258 9.21378 37.3235 6.1659 33.5109 6.1659C32.0276 6.1659 30.6131 6.6213 29.42 7.48319C29.1579 7.67245 28.7855 7.58846 28.6339 7.30513C25.2552 0.984043 16.4302 0.135184 11.8548 5.63398C9.92746 7.95054 9.17016 10.964 9.77699 13.9011C9.84386 14.2254 9.5912 14.5278 9.25571 14.5278H9.04257C4.6433 14.5278 1.06388 18.0445 1.06388 22.3667C1.06388 26.6888 4.6433 30.2055 9.04257 30.2055H12.234C12.5277 30.2055 12.7659 30.4396 12.7659 30.7281C12.7659 31.0167 12.5277 31.2507 12.234 31.2507H9.04257C4.0566 31.2507 0 27.2652 0 22.3666C0 17.6054 3.83202 13.7069 8.62501 13.4919C8.17479 10.4448 9.03573 7.37118 11.0311 4.97254C15.9297 -0.91519 25.3173 -0.255254 29.2857 6.30999C30.5517 5.53021 32.0004 5.12113 33.5107 5.12113C38.13 5.12113 41.7903 8.98385 41.47 13.4968C46.2188 13.7584 50 17.6364 50 22.3662C50 27.2652 45.9434 31.2503 40.9574 31.2503L40.9577 31.2503Z" fill="#263359"/>
<path d="M11.4809 30.4321C11.4809 37.7215 17.516 43.6471 24.9288 43.6471C32.3417 43.6471 38.3768 37.7214 38.3768 30.4321C38.3768 23.1427 32.3417 17.2172 24.9288 17.2172C17.5159 17.2172 11.4809 23.1428 11.4809 30.4321ZM12.8449 30.4321C12.8449 23.89 18.2634 18.5626 24.9288 18.5626C31.5942 18.5626 37.0128 23.8899 37.0128 30.4321C37.0128 36.9743 31.5942 42.3016 24.9288 42.3016C18.2635 42.3016 12.8449 36.9743 12.8449 30.4321Z" fill="#263359" stroke="#F9FFF9" stroke-width="0.3"/>
<path d="M24.6312 35.6915C24.6312 35.9881 24.8753 36.2241 25.1707 36.2241C25.466 36.2241 25.7101 35.9884 25.7101 35.6915V25.7439C25.7101 25.4473 25.466 25.2113 25.1707 25.2113C24.8753 25.2113 24.6312 25.4474 24.6312 25.7439V35.6915Z" fill="#263359" stroke="#483EA8" stroke-width="0.3"/>
<path d="M27.9057 29.1842C28.0111 29.2878 28.1493 29.3393 28.2862 29.3393L24.7903 25.3684L24.7902 25.3685L21.675 28.4291C21.463 28.6374 21.463 28.976 21.675 29.1842C21.8854 29.391 22.2257 29.3911 22.436 29.1842C22.436 29.1842 22.436 29.1842 22.436 29.1842C22.4361 29.1842 22.4361 29.1842 22.4361 29.1841L25.1709 26.4973L27.9057 29.1842Z" fill="#263359" stroke="#483EA8" stroke-width="0.3"/>
</svg>
